<svg xmlns="http://www.w3.org/2000/svg" width="940" height="514" viewBox="0 0 940 514" font-family="-apple-system,BlinkMacSystemFont,'Segoe UI',Roboto,Helvetica,Arial,sans-serif">
<rect width="940" height="514" fill="#ffffff"/>
<text x="24" y="40" font-size="22" font-weight="600" fill="#202124">Prefix-scan throughput (keys/sec, log scale) — higher is better</text>
<rect x="732" y="56" width="14" height="14" rx="2" fill="#4285F4"/>
<text x="752" y="68" font-size="14" fill="#5f6368">HaloDB</text>
<rect x="828" y="56" width="14" height="14" rx="2" fill="#E8B33A"/>
<text x="848" y="68" font-size="14" fill="#5f6368">RocksDB</text>
<line x1="70.0" y1="96" x2="70.0" y2="458" stroke="#e3e6ea" stroke-width="1"/>
<text x="70.0" y="480" font-size="12" fill="#5f6368" text-anchor="middle">1,000</text>
<line x1="280.0" y1="96" x2="280.0" y2="458" stroke="#e3e6ea" stroke-width="1"/>
<text x="280.0" y="480" font-size="12" fill="#5f6368" text-anchor="middle">10,000</text>
<line x1="490.0" y1="96" x2="490.0" y2="458" stroke="#e3e6ea" stroke-width="1"/>
<text x="490.0" y="480" font-size="12" fill="#5f6368" text-anchor="middle">100,000</text>
<line x1="700.0" y1="96" x2="700.0" y2="458" stroke="#e3e6ea" stroke-width="1"/>
<text x="700.0" y="480" font-size="12" fill="#5f6368" text-anchor="middle">1,000,000</text>
<line x1="910.0" y1="96" x2="910.0" y2="458" stroke="#e3e6ea" stroke-width="1"/>
<text x="910.0" y="480" font-size="12" fill="#5f6368" text-anchor="middle">10,000,000</text>
<line x1="70" y1="96" x2="70" y2="458" stroke="#bdc1c6" stroke-width="1.5"/>
<rect x="70" y="96" width="634.6" height="30" fill="#4285F4"/>
<text x="694.6" y="116.0" font-size="14" font-weight="600" fill="#ffffff" text-anchor="end">1,051,824</text>
<rect x="70" y="134" width="649.3" height="30" fill="#E8B33A"/>
<text x="709.3" y="154.0" font-size="14" font-weight="600" fill="#202124" text-anchor="end">1,236,131</text>
<text x="58" y="135.0" font-size="14" fill="#5f6368" text-anchor="end">1KB</text>
<rect x="70" y="194" width="509.2" height="30" fill="#4285F4"/>
<text x="569.2" y="214.0" font-size="14" font-weight="600" fill="#ffffff" text-anchor="end">265,794</text>
<rect x="70" y="232" width="487.6" height="30" fill="#E8B33A"/>
<text x="547.6" y="252.0" font-size="14" font-weight="600" fill="#202124" text-anchor="end">209,773</text>
<text x="58" y="233.0" font-size="14" fill="#5f6368" text-anchor="end">16KB</text>
<rect x="70" y="292" width="318.6" height="30" fill="#4285F4"/>
<text x="378.6" y="312.0" font-size="14" font-weight="600" fill="#ffffff" text-anchor="end">32,905</text>
<rect x="70" y="330" width="280.4" height="30" fill="#E8B33A"/>
<text x="340.4" y="350.0" font-size="14" font-weight="600" fill="#202124" text-anchor="end">21,629</text>
<text x="58" y="331.0" font-size="14" fill="#5f6368" text-anchor="end">256KB</text>
<rect x="70" y="390" width="206.6" height="30" fill="#4285F4"/>
<text x="266.6" y="410.0" font-size="14" font-weight="600" fill="#ffffff" text-anchor="end">9,639</text>
<rect x="70" y="428" width="148.0" height="30" fill="#E8B33A"/>
<text x="208.0" y="448.0" font-size="14" font-weight="600" fill="#202124" text-anchor="end">5,068</text>
<text x="58" y="429.0" font-size="14" fill="#5f6368" text-anchor="end">1MB</text>
</svg>
