<svg xmlns="http://www.w3.org/2000/svg" width="940" height="612" viewBox="0 0 940 612" font-family="-apple-system,BlinkMacSystemFont,'Segoe UI',Roboto,Helvetica,Arial,sans-serif">
<rect width="940" height="612" fill="#ffffff"/>
<text x="24" y="40" font-size="22" font-weight="600" fill="#202124">Random read throughput by key size (ops/sec) — higher is better</text>
<rect x="732" y="56" width="14" height="14" rx="2" fill="#4285F4"/>
<text x="752" y="68" font-size="14" fill="#5f6368">HaloDB</text>
<rect x="828" y="56" width="14" height="14" rx="2" fill="#E8B33A"/>
<text x="848" y="68" font-size="14" fill="#5f6368">RocksDB</text>
<line x1="70.0" y1="96" x2="70.0" y2="556" stroke="#e3e6ea" stroke-width="1"/>
<text x="70.0" y="578" font-size="12" fill="#5f6368" text-anchor="middle">0</text>
<line x1="238.0" y1="96" x2="238.0" y2="556" stroke="#e3e6ea" stroke-width="1"/>
<text x="238.0" y="578" font-size="12" fill="#5f6368" text-anchor="middle">600,000</text>
<line x1="406.0" y1="96" x2="406.0" y2="556" stroke="#e3e6ea" stroke-width="1"/>
<text x="406.0" y="578" font-size="12" fill="#5f6368" text-anchor="middle">1,200,000</text>
<line x1="574.0" y1="96" x2="574.0" y2="556" stroke="#e3e6ea" stroke-width="1"/>
<text x="574.0" y="578" font-size="12" fill="#5f6368" text-anchor="middle">1,800,000</text>
<line x1="742.0" y1="96" x2="742.0" y2="556" stroke="#e3e6ea" stroke-width="1"/>
<text x="742.0" y="578" font-size="12" fill="#5f6368" text-anchor="middle">2,400,000</text>
<line x1="910.0" y1="96" x2="910.0" y2="556" stroke="#e3e6ea" stroke-width="1"/>
<text x="910.0" y="578" font-size="12" fill="#5f6368" text-anchor="middle">3,000,000</text>
<line x1="70" y1="96" x2="70" y2="556" stroke="#bdc1c6" stroke-width="1.5"/>
<rect x="70" y="96" width="766.0" height="30" fill="#4285F4"/>
<text x="826.0" y="116.0" font-size="14" font-weight="600" fill="#ffffff" text-anchor="end">2,735,662</text>
<rect x="70" y="134" width="582.0" height="30" fill="#E8B33A"/>
<text x="642.0" y="154.0" font-size="14" font-weight="600" fill="#202124" text-anchor="end">2,078,608</text>
<text x="58" y="135.0" font-size="14" fill="#5f6368" text-anchor="end">8 B</text>
<rect x="70" y="194" width="771.7" height="30" fill="#4285F4"/>
<text x="831.7" y="214.0" font-size="14" font-weight="600" fill="#ffffff" text-anchor="end">2,756,031</text>
<rect x="70" y="232" width="613.5" height="30" fill="#E8B33A"/>
<text x="673.5" y="252.0" font-size="14" font-weight="600" fill="#202124" text-anchor="end">2,191,073</text>
<text x="58" y="233.0" font-size="14" fill="#5f6368" text-anchor="end">64 B</text>
<rect x="70" y="292" width="606.9" height="30" fill="#4285F4"/>
<text x="666.9" y="312.0" font-size="14" font-weight="600" fill="#ffffff" text-anchor="end">2,167,669</text>
<rect x="70" y="330" width="426.9" height="30" fill="#E8B33A"/>
<text x="486.9" y="350.0" font-size="14" font-weight="600" fill="#202124" text-anchor="end">1,524,574</text>
<text x="58" y="331.0" font-size="14" fill="#5f6368" text-anchor="end">256 B</text>
<rect x="70" y="390" width="575.0" height="30" fill="#4285F4"/>
<text x="635.0" y="410.0" font-size="14" font-weight="600" fill="#ffffff" text-anchor="end">2,053,670</text>
<rect x="70" y="428" width="568.0" height="30" fill="#E8B33A"/>
<text x="628.0" y="448.0" font-size="14" font-weight="600" fill="#202124" text-anchor="end">2,028,665</text>
<text x="58" y="429.0" font-size="14" fill="#5f6368" text-anchor="end">1 KB</text>
<rect x="70" y="488" width="524.8" height="30" fill="#4285F4"/>
<text x="584.8" y="508.0" font-size="14" font-weight="600" fill="#ffffff" text-anchor="end">1,874,241</text>
<rect x="70" y="526" width="442.7" height="30" fill="#E8B33A"/>
<text x="502.7" y="546.0" font-size="14" font-weight="600" fill="#202124" text-anchor="end">1,581,044</text>
<text x="58" y="527.0" font-size="14" fill="#5f6368" text-anchor="end">4 KB</text>
</svg>
